<svg xmlns="http://www.w3.org/2000/svg" width="35" height="35" viewBox="0 0 35 35">
  <g id="_001-down-arrow" data-name="001-down-arrow" transform="translate(-9 -8)">
    <path id="Path_1" data-name="Path 1" d="M38.167,8H32.333a1.458,1.458,0,1,0,0,2.917h5.833a2.92,2.92,0,0,1,2.917,2.917V37.167a2.92,2.92,0,0,1-2.917,2.917H14.833a2.92,2.92,0,0,1-2.917-2.917V13.833a2.92,2.92,0,0,1,2.917-2.917h5.833a1.458,1.458,0,0,0,0-2.917H14.833A5.84,5.84,0,0,0,9,13.833V37.167A5.84,5.84,0,0,0,14.833,43H38.167A5.84,5.84,0,0,0,44,37.167V13.833A5.84,5.84,0,0,0,38.167,8Z" fill="#ff4b4b"/>
    <path id="Path_2" data-name="Path 2" d="M23.413,27.44A1.458,1.458,0,0,0,23.44,29.5l4.788,4.664a2.917,2.917,0,0,0,2.068.855,2.882,2.882,0,0,0,2.044-.841l4.8-4.677a1.458,1.458,0,0,0-2.035-2.089l-4.829,4.677-4.8-4.677a1.458,1.458,0,0,0-2.063.026Z" transform="translate(-3.792 -5.146)" fill="#ff4b4b"/>
  </g>
</svg>
