<svg xmlns="http://www.w3.org/2000/svg" width="35.5" height="35.5" viewBox="0 0 35.5 35.5">
  <g id="_001-linkedin" data-name="001-linkedin" transform="translate(0.25 0.25)">
    <g id="Group_59" data-name="Group 59">
      <g id="Group_58" data-name="Group 58">
        <path id="Path_3" data-name="Path 3" d="M30.488,0H4.512A4.517,4.517,0,0,0,0,4.512V30.488A4.517,4.517,0,0,0,4.512,35H30.488A4.517,4.517,0,0,0,35,30.488V4.512A4.517,4.517,0,0,0,30.488,0Zm3.145,30.488a3.148,3.148,0,0,1-3.145,3.145H4.512a3.148,3.148,0,0,1-3.145-3.145V4.512A3.148,3.148,0,0,1,4.512,1.367H30.488a3.148,3.148,0,0,1,3.145,3.145Z" fill="#404040" stroke="#404040" stroke-width="0.5"/>
      </g>
    </g>
    <g id="Group_61" data-name="Group 61" transform="translate(14.49 13.713)">
      <g id="Group_60" data-name="Group 60">
        <path id="Path_4" data-name="Path 4" d="M210.957,187.23h0a4.606,4.606,0,0,0-3.647-1.531,5.7,5.7,0,0,0-2.855.678,5.916,5.916,0,0,0-1.13.857v-.6a.625.625,0,0,0-.625-.625h-4.55a.625.625,0,0,0-.625.625v13.907a.625.625,0,0,0,.625.625h4.517a.625.625,0,0,0,.625-.625v-7.887a1.921,1.921,0,0,1,1.756-1.969l.159-.009a1.4,1.4,0,0,1,1.048.392,1.621,1.621,0,0,1,.5,1.176v8.3a.625.625,0,0,0,.625.625h4.258a.625.625,0,0,0,.625-.625v-8.839A6.685,6.685,0,0,0,210.957,187.23Zm.05,12.691H208v-7.671a2.876,2.876,0,0,0-.886-2.084,2.64,2.64,0,0,0-1.975-.732l-.159.009a3.17,3.17,0,0,0-2.937,3.217v7.262h-3.267V187.263h3.3V188.9a.625.625,0,0,0,1.129.37,6.42,6.42,0,0,1,1.871-1.811,4.477,4.477,0,0,1,2.236-.514,3.367,3.367,0,0,1,2.7,1.1h0a5.529,5.529,0,0,1,.993,3.656Z" transform="translate(-197.524 -185.699)" fill="#404040" stroke="#404040" stroke-width="0.5"/>
      </g>
    </g>
    <g id="Group_63" data-name="Group 63" transform="translate(5.787 14.044)">
      <g id="Group_62" data-name="Group 62">
        <path id="Path_5" data-name="Path 5" d="M88.249,190.729H83.7a.625.625,0,0,0-.625.625v5.2a.625.625,0,0,0,1.25,0v-4.579h3.3v12.657h-3.3v-2.765a.625.625,0,1,0-1.25,0v3.39a.625.625,0,0,0,.625.625h4.55a.625.625,0,0,0,.625-.625V191.354A.625.625,0,0,0,88.249,190.729Z" transform="translate(-83.074 -190.729)" fill="#404040" stroke="#404040" stroke-width="0.5"/>
      </g>
    </g>
    <g id="Group_65" data-name="Group 65" transform="translate(5.529 21.883)">
      <g id="Group_64" data-name="Group 64">
        <path id="Path_6" data-name="Path 6" d="M84.136,319.183a.625.625,0,1,0,.183.442A.631.631,0,0,0,84.136,319.183Z" transform="translate(-83.069 -319)" fill="#404040" stroke="#404040" stroke-width="0.5"/>
      </g>
    </g>
    <g id="Group_67" data-name="Group 67" transform="translate(5.497 5.498)">
      <g id="Group_66" data-name="Group 66">
        <path id="Path_7" data-name="Path 7" d="M81.92,78.753a3.17,3.17,0,1,0,3.17,3.17A3.174,3.174,0,0,0,81.92,78.753Zm0,5.091a1.92,1.92,0,1,1,1.92-1.92A1.923,1.923,0,0,1,81.92,83.844Z" transform="translate(-78.75 -78.753)" fill="#404040" stroke="#404040" stroke-width="0.5"/>
      </g>
    </g>
    <g id="Group_69" data-name="Group 69" transform="translate(20.743 3)">
      <g id="Group_68" data-name="Group 68">
        <path id="Path_8" data-name="Path 8" d="M302.855,48h-5.094a.625.625,0,0,0,0,1.25h5.094a.625.625,0,0,0,0-1.25Z" transform="translate(-297.136 -48)" fill="#404040" stroke="#404040" stroke-width="0.5"/>
      </g>
    </g>
    <g id="Group_71" data-name="Group 71" transform="translate(17.262 3)">
      <g id="Group_70" data-name="Group 70">
        <path id="Path_9" data-name="Path 9" d="M252.268,48h-.007a.625.625,0,0,0,0,1.25h.007a.625.625,0,0,0,0-1.25Z" transform="translate(-251.636 -48)" fill="#404040" stroke="#404040" stroke-width="0.5"/>
      </g>
    </g>
  </g>
</svg>
