<svg xmlns="http://www.w3.org/2000/svg" width="13.634" height="22.894" viewBox="0 0 13.634 22.894">
  <path id="Path_38" data-name="Path 38" d="M246.365,307.254c-1.764-.651-3.408-1.358-3.952-1.6a.787.787,0,0,1-.257-.731,1.259,1.259,0,0,1,1.01-.993,4.219,4.219,0,0,1,3.819.888c.074.056.13.1.164.12a2.056,2.056,0,0,0,2.345-3.378l-.033-.025a9.3,9.3,0,0,0-3.35-1.634v-.23a2.056,2.056,0,1,0-4.113,0v.317l-.019.005a5.379,5.379,0,0,0-3.895,4.347,4.881,4.881,0,0,0,2.178,4.832,2.036,2.036,0,0,0,.285.155c.085.038,2.111.94,4.392,1.781.46.17,1.95.8,1.78,1.748a2.252,2.252,0,0,1-2.342,1.483,4.879,4.879,0,0,1-3.587-1.5,2.056,2.056,0,0,0-3.047,2.762A8.691,8.691,0,0,0,242,318.151v.305a2.056,2.056,0,1,0,4.113,0v-.207a6.034,6.034,0,0,0,4.658-4.666C251.152,311.45,250.194,308.667,246.365,307.254Z" transform="translate(-237.214 -297.619)" fill="#fcfcf5"/>
</svg>
